<svg data-v-423bf9ae="" xmlns="http://www.w3.org/2000/svg" viewBox="0 0 269.89218405902056 60" class="font"><!----><!----><!----><g data-v-423bf9ae="" id="0517a35b-ba80-4658-998d-85f53422f4a8" fill="black" transform="matrix(4.313443908828179,0,0,4.313443908828179,-1.2077605942895389,-17.4694481766411)"><path d="M16.15 14.12L10.10 14.12L10.10 11.59L10.10 11.59Q10.70 11.59 10.89 11.43L10.89 11.43L10.89 11.43Q11.07 11.27 11.07 10.82L11.07 10.82L11.07 6.90L8.74 14.12L6.10 14.12L3.73 7.28L3.73 10.90L3.73 10.90Q3.73 11.13 3.77 11.26L3.77 11.26L3.77 11.26Q3.81 11.40 3.91 11.47L3.91 11.47L3.91 11.47Q4.02 11.55 4.21 11.57L4.21 11.57L4.21 11.57Q4.41 11.59 4.70 11.59L4.70 11.59L4.70 14.12L0.28 14.12L0.28 11.59L0.28 11.59Q0.88 11.59 1.14 11.43L1.14 11.43L1.14 11.43Q1.40 11.27 1.40 10.82L1.40 10.82L1.40 7.36L1.40 7.36Q1.40 6.91 1.14 6.75L1.14 6.75L1.14 6.75Q0.88 6.59 0.28 6.59L0.28 6.59L0.28 4.05L6.79 4.05L8.36 8.78L9.73 4.05L16.15 4.05L16.15 6.59L16.15 6.59Q15.55 6.59 15.30 6.75L15.30 6.75L15.30 6.75Q15.04 6.91 15.04 7.36L15.04 7.36L15.04 10.82L15.04 10.82Q15.04 11.27 15.30 11.43L15.30 11.43L15.30 11.43Q15.55 11.59 16.15 11.59L16.15 11.59L16.15 14.12ZM25.27 9.71L22.94 14.68L22.94 14.68Q22.71 15.19 22.46 15.76L22.46 15.76L22.46 15.76Q22.22 16.34 21.82 16.83L21.82 16.83L21.82 16.83Q21.42 17.32 20.79 17.64L20.79 17.64L20.79 17.64Q20.16 17.96 19.15 17.96L19.15 17.96L19.15 17.96Q18.44 17.96 17.90 17.78L17.90 17.78L17.90 17.78Q17.37 17.60 17.02 17.29L17.02 17.29L17.02 17.29Q16.67 16.98 16.51 16.58L16.51 16.58L16.51 16.58Q16.34 16.18 16.34 15.76L16.34 15.76L16.34 15.76Q16.34 14.94 16.85 14.46L16.85 14.46L16.85 14.46Q17.36 13.99 18.12 13.99L18.12 13.99L18.12 13.99Q18.56 13.99 18.86 14.12L18.86 14.12L18.86 14.12Q19.16 14.25 19.35 14.45L19.35 14.45L19.35 14.45Q19.54 14.66 19.62 14.90L19.62 14.90L19.62 14.90Q19.69 15.15 19.69 15.37L19.69 15.37L19.69 15.37Q19.69 15.86 19.45 16.12L19.45 16.12L19.45 16.12Q19.21 16.38 18.87 16.45L18.87 16.45L18.87 16.45Q18.89 16.47 18.96 16.49L18.96 16.49L18.96 16.49Q19.04 16.53 19.29 16.53L19.29 16.53L19.29 16.53Q19.53 16.53 19.72 16.41L19.72 16.41L19.72 16.41Q19.91 16.29 20.06 16.12L20.06 16.12L20.06 16.12Q20.21 15.94 20.33 15.74L20.33 15.74L20.33 15.74Q20.44 15.54 20.51 15.37L20.51 15.37L20.52 15.33L17.61 9.71L17.61 9.71Q17.54 9.56 17.46 9.45L17.46 9.45L17.46 9.45Q17.38 9.34 17.27 9.27L17.27 9.27L17.27 9.27Q17.16 9.19 16.99 9.16L16.99 9.16L16.99 9.16Q16.82 9.13 16.57 9.13L16.57 9.13L16.57 6.59L22.06 6.59L22.06 9.13L22.06 9.13Q21.63 9.13 21.50 9.25L21.50 9.25L21.50 9.25Q21.36 9.38 21.47 9.65L21.47 9.65L22.30 11.41L23.10 9.65L23.10 9.65Q23.21 9.41 23.07 9.27L23.07 9.27L23.07 9.27Q22.94 9.13 22.51 9.13L22.51 9.13L22.51 6.59L26.32 6.59L26.32 9.13L26.32 9.13Q25.81 9.13 25.61 9.27L25.61 9.27L25.61 9.27Q25.41 9.41 25.27 9.71L25.27 9.71ZM36.05 14.12L34.69 10.47L33.39 14.12L30.34 14.12L27.71 7.36L27.71 7.36Q27.63 7.15 27.56 7.01L27.56 7.01L27.56 7.01Q27.49 6.87 27.37 6.77L27.37 6.77L27.37 6.77Q27.25 6.67 27.07 6.63L27.07 6.63L27.07 6.63Q26.89 6.59 26.59 6.59L26.59 6.59L26.59 4.05L32.31 4.05L32.31 6.59L32.31 6.59Q31.94 6.59 31.79 6.76L31.79 6.76L31.79 6.76Q31.64 6.94 31.75 7.28L31.75 7.28L32.74 10.60L32.80 10.60L33.69 7.77L33.55 7.36L33.55 7.36Q33.40 6.95 33.27 6.77L33.27 6.77L33.27 6.77Q33.13 6.59 32.81 6.59L32.81 6.59L32.81 4.05L38.23 4.05L38.23 6.59L38.23 6.59Q37.71 6.59 37.59 6.76L37.59 6.76L37.59 6.76Q37.47 6.94 37.58 7.28L37.58 7.28L38.44 10.60L38.49 10.60L39.52 7.28L39.52 7.28Q39.73 6.59 38.73 6.59L38.73 6.59L38.73 4.05L42.71 4.05L42.71 6.59L42.71 6.59Q42.42 6.59 42.23 6.63L42.23 6.63L42.23 6.63Q42.03 6.67 41.92 6.76L41.92 6.76L41.92 6.76Q41.82 6.86 41.74 7.00L41.74 7.00L41.74 7.00Q41.67 7.15 41.59 7.36L41.59 7.36L39.08 14.12L36.05 14.12ZM46.44 7.54L46.44 7.54L46.44 7.54Q46.09 7.54 45.84 7.59L45.84 7.59L45.84 7.59Q45.59 7.64 45.41 7.71L45.41 7.71L45.41 7.71Q45.23 7.78 45.12 7.86L45.12 7.86L45.12 7.86Q45.00 7.95 44.91 8.02L44.91 8.02L44.98 8.09L44.98 8.09Q45.11 8.02 45.26 7.95L45.26 7.95L45.26 7.95Q45.42 7.88 45.66 7.88L45.66 7.88L45.66 7.88Q46.06 7.88 46.35 8.15L46.35 8.15L46.35 8.15Q46.65 8.41 46.65 8.98L46.65 8.98L46.65 8.98Q46.65 9.53 46.20 9.86L46.20 9.86L46.20 9.86Q45.75 10.19 45.00 10.19L45.00 10.19L45.00 10.19Q44.28 10.19 43.86 9.78L43.86 9.78L43.86 9.78Q43.43 9.37 43.43 8.61L43.43 8.61L43.43 8.61Q43.43 8.19 43.66 7.78L43.66 7.78L43.66 7.78Q43.89 7.36 44.38 7.03L44.38 7.03L44.38 7.03Q44.87 6.71 45.63 6.49L45.63 6.49L45.63 6.49Q46.38 6.28 47.45 6.28L47.45 6.28L47.45 6.28Q48.72 6.28 49.53 6.52L49.53 6.52L49.53 6.52Q50.33 6.76 50.78 7.14L50.78 7.14L50.78 7.14Q51.23 7.51 51.40 7.99L51.40 7.99L51.40 7.99Q51.56 8.47 51.56 8.96L51.56 8.96L51.56 11.63L51.56 11.63Q51.56 12.25 51.60 12.47L51.60 12.47L51.60 12.47Q51.65 12.69 51.91 12.69L51.91 12.69L51.91 12.69Q52.12 12.69 52.21 12.49L52.21 12.49L52.21 12.49Q52.29 12.29 52.29 11.80L52.29 11.80L52.29 10.94L53.07 10.94L53.07 11.81L53.07 11.81Q53.07 12.43 52.97 12.90L52.97 12.90L52.97 12.90Q52.87 13.38 52.58 13.72L52.58 13.72L52.58 13.72Q52.29 14.05 51.80 14.23L51.80 14.23L51.80 14.23Q51.31 14.40 50.54 14.40L50.54 14.40L50.54 14.40Q49.85 14.40 49.40 14.26L49.40 14.26L49.40 14.26Q48.95 14.11 48.68 13.89L48.68 13.89L48.68 13.89Q48.41 13.67 48.30 13.44L48.30 13.44L48.30 13.44Q48.19 13.20 48.19 13.02L48.19 13.02L48.08 13.02L48.08 13.02Q48.04 13.30 47.84 13.55L47.84 13.55L47.84 13.55Q47.65 13.80 47.30 14.00L47.30 14.00L47.30 14.00Q46.96 14.19 46.47 14.31L46.47 14.31L46.47 14.31Q45.99 14.43 45.38 14.43L45.38 14.43L45.38 14.43Q44.79 14.43 44.31 14.32L44.31 14.32L44.31 14.32Q43.83 14.21 43.49 13.96L43.49 13.96L43.49 13.96Q43.15 13.72 42.96 13.33L42.96 13.33L42.96 13.33Q42.77 12.95 42.77 12.41L42.77 12.41L42.77 12.41Q42.77 11.76 43.14 11.38L43.14 11.38L43.14 11.38Q43.51 11.00 44.07 10.78L44.07 10.78L44.07 10.78Q44.63 10.55 45.29 10.41L45.29 10.41L45.29 10.41Q45.95 10.27 46.51 10.08L46.51 10.08L46.51 10.08Q47.07 9.88 47.44 9.56L47.44 9.56L47.44 9.56Q47.81 9.25 47.81 8.67L47.81 8.67L47.81 8.67Q47.81 8.16 47.49 7.85L47.49 7.85L47.49 7.85Q47.17 7.54 46.44 7.54ZM47.81 11.52L47.81 10.50L47.81 10.50Q47.66 10.72 47.43 10.85L47.43 10.85L47.43 10.85Q47.21 10.99 47.00 11.11L47.00 11.11L47.00 11.11Q46.79 11.24 46.64 11.41L46.64 11.41L46.64 11.41Q46.48 11.59 46.48 11.88L46.48 11.88L46.48 11.88Q46.48 12.11 46.61 12.29L46.61 12.29L46.61 12.29Q46.73 12.47 47.09 12.47L47.09 12.47L47.09 12.47Q47.41 12.47 47.61 12.22L47.61 12.22L47.61 12.22Q47.81 11.97 47.81 11.52L47.81 11.52ZM61.80 9.71L59.47 14.68L59.47 14.68Q59.24 15.19 58.99 15.76L58.99 15.76L58.99 15.76Q58.75 16.34 58.35 16.83L58.35 16.83L58.35 16.83Q57.95 17.32 57.32 17.64L57.32 17.64L57.32 17.64Q56.69 17.96 55.68 17.96L55.68 17.96L55.68 17.96Q54.97 17.96 54.43 17.78L54.43 17.78L54.43 17.78Q53.90 17.60 53.55 17.29L53.55 17.29L53.55 17.29Q53.20 16.98 53.04 16.58L53.04 16.58L53.04 16.58Q52.87 16.18 52.87 15.76L52.87 15.76L52.87 15.76Q52.87 14.94 53.38 14.46L53.38 14.46L53.38 14.46Q53.89 13.99 54.65 13.99L54.65 13.99L54.65 13.99Q55.09 13.99 55.39 14.12L55.39 14.12L55.39 14.12Q55.69 14.25 55.88 14.45L55.88 14.45L55.88 14.45Q56.08 14.66 56.15 14.90L56.15 14.90L56.15 14.90Q56.23 15.15 56.23 15.37L56.23 15.37L56.23 15.37Q56.23 15.86 55.98 16.12L55.98 16.12L55.98 16.12Q55.74 16.38 55.40 16.45L55.40 16.45L55.40 16.45Q55.43 16.47 55.49 16.49L55.49 16.49L55.49 16.49Q55.57 16.53 55.82 16.53L55.82 16.53L55.82 16.53Q56.06 16.53 56.25 16.41L56.25 16.41L56.25 16.41Q56.44 16.29 56.59 16.12L56.59 16.12L56.59 16.12Q56.75 15.94 56.86 15.74L56.86 15.74L56.86 15.74Q56.97 15.54 57.04 15.37L57.04 15.37L57.05 15.33L54.14 9.71L54.14 9.71Q54.07 9.56 53.99 9.45L53.99 9.45L53.99 9.45Q53.92 9.34 53.80 9.27L53.80 9.27L53.80 9.27Q53.69 9.19 53.52 9.16L53.52 9.16L53.52 9.16Q53.35 9.13 53.10 9.13L53.10 9.13L53.10 6.59L58.59 6.59L58.59 9.13L58.59 9.13Q58.16 9.13 58.03 9.25L58.03 9.25L58.03 9.25Q57.89 9.38 58.00 9.65L58.00 9.65L58.83 11.41L59.63 9.65L59.63 9.65Q59.74 9.41 59.61 9.27L59.61 9.27L59.61 9.27Q59.47 9.13 59.04 9.13L59.04 9.13L59.04 6.59L62.85 6.59L62.85 9.13L62.85 9.13Q62.34 9.13 62.14 9.27L62.14 9.27L62.14 9.27Q61.94 9.41 61.80 9.71L61.80 9.71Z"></path></g><!----><!----></svg>