<?xml version="1.0" encoding="UTF-8" standalone="no"?>
<svg
   data-v-423bf9ae=""
   viewBox="0 0 77.584008 90"
   class="iconAbove"
   version="1.1"
   id="svg137"
   sodipodi:docname="default-monochrome.svg"
   width="77.584007"
   height="90"
   inkscape:version="1.1.1 (1:1.1+202109281949+c3084ef5ed)"
   xmlns:inkscape="http://www.inkscape.org/namespaces/inkscape"
   xmlns:sodipodi="http://sodipodi.sourceforge.net/DTD/sodipodi-0.dtd"
   xmlns="http://www.w3.org/2000/svg"
   xmlns:svg="http://www.w3.org/2000/svg">
  <defs
     id="defs141" />
  <sodipodi:namedview
     id="namedview139"
     pagecolor="#ffffff"
     bordercolor="#666666"
     borderopacity="1.0"
     inkscape:pageshadow="2"
     inkscape:pageopacity="0.0"
     inkscape:pagecheckerboard="0"
     showgrid="false"
     fit-margin-top="0"
     fit-margin-left="0"
     fit-margin-right="0"
     fit-margin-bottom="0"
     inkscape:zoom="4.9509202"
     inkscape:cx="25.247831"
     inkscape:cy="52.414498"
     inkscape:window-width="1920"
     inkscape:window-height="1016"
     inkscape:window-x="0"
     inkscape:window-y="27"
     inkscape:window-maximized="1"
     inkscape:current-layer="svg137" />
  <!---->
  <!---->
  <!---->
  <g
     data-v-423bf9ae=""
     id="a8471a15-ea0b-4808-a6e7-e1a02d14b6e1"
     fill="#ffffff"
     transform="matrix(4.3134439,0,0,4.3134439,-110.62418,72.530549)">
    <path
       d="M 16.15,14.12 H 10.1 v -2.53 0 q 0.6,0 0.79,-0.16 v 0 0 q 0.18,-0.16 0.18,-0.61 v 0 V 6.9 L 8.74,14.12 H 6.1 L 3.73,7.28 v 3.62 0 q 0,0.23 0.04,0.36 v 0 0 q 0.04,0.14 0.14,0.21 v 0 0 q 0.11,0.08 0.3,0.1 v 0 0 q 0.2,0.02 0.49,0.02 v 0 2.53 H 0.28 v -2.53 0 q 0.6,0 0.86,-0.16 v 0 0 Q 1.4,11.27 1.4,10.82 v 0 -3.46 0 Q 1.4,6.91 1.14,6.75 v 0 0 Q 0.88,6.59 0.28,6.59 v 0 -2.54 H 6.79 L 8.36,8.78 9.73,4.05 h 6.42 v 2.54 0 q -0.6,0 -0.85,0.16 v 0 0 q -0.26,0.16 -0.26,0.61 v 0 3.46 0 q 0,0.45 0.26,0.61 v 0 0 q 0.25,0.16 0.85,0.16 v 0 z m 9.12,-4.41 -2.33,4.97 v 0 q -0.23,0.51 -0.48,1.08 v 0 0 q -0.24,0.58 -0.64,1.07 v 0 0 q -0.4,0.49 -1.03,0.81 v 0 0 q -0.63,0.32 -1.64,0.32 v 0 0 q -0.71,0 -1.25,-0.18 v 0 0 Q 17.37,17.6 17.02,17.29 v 0 0 q -0.35,-0.31 -0.51,-0.71 v 0 0 q -0.17,-0.4 -0.17,-0.82 v 0 0 q 0,-0.82 0.51,-1.3 v 0 0 q 0.51,-0.47 1.27,-0.47 v 0 0 q 0.44,0 0.74,0.13 v 0 0 q 0.3,0.13 0.49,0.33 v 0 0 q 0.19,0.21 0.27,0.45 v 0 0 q 0.07,0.25 0.07,0.47 v 0 0 q 0,0.49 -0.24,0.75 v 0 0 q -0.24,0.26 -0.58,0.33 v 0 0 q 0.02,0.02 0.09,0.04 v 0 0 q 0.08,0.04 0.33,0.04 v 0 0 q 0.24,0 0.43,-0.12 v 0 0 q 0.19,-0.12 0.34,-0.29 v 0 0 q 0.15,-0.18 0.27,-0.38 v 0 0 q 0.11,-0.2 0.18,-0.37 v 0 l 0.01,-0.04 -2.91,-5.62 v 0 Q 17.54,9.56 17.46,9.45 v 0 0 Q 17.38,9.34 17.27,9.27 v 0 0 Q 17.16,9.19 16.99,9.16 v 0 0 Q 16.82,9.13 16.57,9.13 v 0 -2.54 h 5.49 v 2.54 0 q -0.43,0 -0.56,0.12 v 0 0 q -0.14,0.13 -0.03,0.4 v 0 l 0.83,1.76 0.8,-1.76 v 0 Q 23.21,9.41 23.07,9.27 v 0 0 Q 22.94,9.13 22.51,9.13 v 0 -2.54 h 3.81 v 2.54 0 q -0.51,0 -0.71,0.14 v 0 0 q -0.2,0.14 -0.34,0.44 z m 10.78,4.41 -1.36,-3.65 -1.3,3.65 H 30.34 L 27.71,7.36 v 0 Q 27.63,7.15 27.56,7.01 v 0 0 Q 27.49,6.87 27.37,6.77 v 0 0 q -0.12,-0.1 -0.3,-0.14 v 0 0 Q 26.89,6.59 26.59,6.59 v 0 -2.54 h 5.72 v 2.54 0 q -0.37,0 -0.52,0.17 v 0 0 q -0.15,0.18 -0.04,0.52 v 0 l 0.99,3.32 H 32.8 L 33.69,7.77 33.55,7.36 v 0 Q 33.4,6.95 33.27,6.77 v 0 0 Q 33.13,6.59 32.81,6.59 v 0 -2.54 h 5.42 v 2.54 0 q -0.52,0 -0.64,0.17 v 0 0 q -0.12,0.18 -0.01,0.52 v 0 l 0.86,3.32 h 0.05 l 1.03,-3.32 v 0 Q 39.73,6.59 38.73,6.59 v 0 -2.54 h 3.98 v 2.54 0 q -0.29,0 -0.48,0.04 v 0 0 q -0.2,0.04 -0.31,0.13 v 0 0 Q 41.82,6.86 41.74,7 v 0 0 q -0.07,0.15 -0.15,0.36 v 0 l -2.51,6.76 z M 46.44,7.54 v 0 0 q -0.35,0 -0.6,0.05 v 0 0 q -0.25,0.05 -0.43,0.12 v 0 0 q -0.18,0.07 -0.29,0.15 v 0 0 Q 45,7.95 44.91,8.02 v 0 l 0.07,0.07 v 0 q 0.13,-0.07 0.28,-0.14 v 0 0 q 0.16,-0.07 0.4,-0.07 v 0 0 q 0.4,0 0.69,0.27 v 0 0 q 0.3,0.26 0.3,0.83 v 0 0 q 0,0.55 -0.45,0.88 v 0 0 q -0.45,0.33 -1.2,0.33 v 0 0 q -0.72,0 -1.14,-0.41 v 0 0 Q 43.43,9.37 43.43,8.61 v 0 0 q 0,-0.42 0.23,-0.83 v 0 0 q 0.23,-0.42 0.72,-0.75 v 0 0 q 0.49,-0.32 1.25,-0.54 v 0 0 q 0.75,-0.21 1.82,-0.21 v 0 0 q 1.27,0 2.08,0.24 v 0 0 q 0.8,0.24 1.25,0.62 v 0 0 q 0.45,0.37 0.62,0.85 v 0 0 q 0.16,0.48 0.16,0.97 v 0 2.67 0 q 0,0.62 0.04,0.84 v 0 0 q 0.05,0.22 0.31,0.22 v 0 0 q 0.21,0 0.3,-0.2 v 0 0 q 0.08,-0.2 0.08,-0.69 v 0 -0.86 h 0.78 v 0.87 0 q 0,0.62 -0.1,1.09 v 0 0 q -0.1,0.48 -0.39,0.82 v 0 0 q -0.29,0.33 -0.78,0.51 v 0 0 q -0.49,0.17 -1.26,0.17 v 0 0 q -0.69,0 -1.14,-0.14 v 0 0 q -0.45,-0.15 -0.72,-0.37 v 0 0 Q 48.41,13.67 48.3,13.44 v 0 0 Q 48.19,13.2 48.19,13.02 v 0 h -0.11 v 0 q -0.04,0.28 -0.24,0.53 v 0 0 Q 47.65,13.8 47.3,14 v 0 0 q -0.34,0.19 -0.83,0.31 v 0 0 q -0.48,0.12 -1.09,0.12 v 0 0 q -0.59,0 -1.07,-0.11 v 0 0 q -0.48,-0.11 -0.82,-0.36 v 0 0 q -0.34,-0.24 -0.53,-0.63 v 0 0 q -0.19,-0.38 -0.19,-0.92 v 0 0 q 0,-0.65 0.37,-1.03 v 0 0 q 0.37,-0.38 0.93,-0.6 v 0 0 q 0.56,-0.23 1.22,-0.37 v 0 0 q 0.66,-0.14 1.22,-0.33 v 0 0 q 0.56,-0.2 0.93,-0.52 v 0 0 q 0.37,-0.31 0.37,-0.89 v 0 0 q 0,-0.51 -0.32,-0.82 v 0 0 Q 47.17,7.54 46.44,7.54 Z m 1.37,3.98 v -1.02 0 q -0.15,0.22 -0.38,0.35 v 0 0 Q 47.21,10.99 47,11.11 v 0 0 q -0.21,0.13 -0.36,0.3 v 0 0 q -0.16,0.18 -0.16,0.47 v 0 0 q 0,0.23 0.13,0.41 v 0 0 q 0.12,0.18 0.48,0.18 v 0 0 q 0.32,0 0.52,-0.25 v 0 0 q 0.2,-0.25 0.2,-0.7 z M 61.8,9.71 59.47,14.68 v 0 q -0.23,0.51 -0.48,1.08 v 0 0 q -0.24,0.58 -0.64,1.07 v 0 0 q -0.4,0.49 -1.03,0.81 v 0 0 q -0.63,0.32 -1.64,0.32 v 0 0 q -0.71,0 -1.25,-0.18 v 0 0 Q 53.9,17.6 53.55,17.29 v 0 0 Q 53.2,16.98 53.04,16.58 v 0 0 q -0.17,-0.4 -0.17,-0.82 v 0 0 q 0,-0.82 0.51,-1.3 v 0 0 q 0.51,-0.47 1.27,-0.47 v 0 0 q 0.44,0 0.74,0.13 v 0 0 q 0.3,0.13 0.49,0.33 v 0 0 q 0.2,0.21 0.27,0.45 v 0 0 q 0.08,0.25 0.08,0.47 v 0 0 q 0,0.49 -0.25,0.75 v 0 0 q -0.24,0.26 -0.58,0.33 v 0 0 q 0.03,0.02 0.09,0.04 v 0 0 q 0.08,0.04 0.33,0.04 v 0 0 q 0.24,0 0.43,-0.12 v 0 0 q 0.19,-0.12 0.34,-0.29 v 0 0 q 0.16,-0.18 0.27,-0.38 v 0 0 q 0.11,-0.2 0.18,-0.37 v 0 l 0.01,-0.04 -2.91,-5.62 v 0 Q 54.07,9.56 53.99,9.45 v 0 0 Q 53.92,9.34 53.8,9.27 v 0 0 Q 53.69,9.19 53.52,9.16 v 0 0 Q 53.35,9.13 53.1,9.13 v 0 -2.54 h 5.49 v 2.54 0 q -0.43,0 -0.56,0.12 v 0 0 Q 57.89,9.38 58,9.65 v 0 l 0.83,1.76 0.8,-1.76 v 0 Q 59.74,9.41 59.61,9.27 v 0 0 Q 59.47,9.13 59.04,9.13 v 0 -2.54 h 3.81 v 2.54 0 q -0.51,0 -0.71,0.14 v 0 0 q -0.2,0.14 -0.34,0.44 z"
       id="path111" />
  </g>
  <!---->
  <g
     data-v-423bf9ae=""
     id="17a3e3b2-95b0-42de-9907-967d46708923"
     transform="matrix(1.1395001,0,0,1.1395001,-18.467878,-11.975007)"
     stroke="none"
     fill="#047daf">
    <path
       d="m 19.779,10.509 v 4.78 h 2.444 c 1.174,0 2.129,0.955 2.129,2.129 a 2.131,2.131 0 0 1 -2.129,2.129 h -2.444 v 2.258 h 2.444 c 1.174,0 2.129,0.955 2.129,2.129 a 2.131,2.131 0 0 1 -2.129,2.129 h -2.444 v 2.258 h 2.444 c 1.174,0 2.129,0.955 2.129,2.129 a 2.131,2.131 0 0 1 -2.129,2.129 h -2.444 v 2.258 h 2.444 c 1.174,0 2.129,0.955 2.129,2.129 0,1.174 -0.955,2.129 -2.129,2.129 h -2.444 v 2.258 h 2.444 c 1.174,0 2.129,0.955 2.129,2.129 a 2.131,2.131 0 0 1 -2.129,2.129 h -2.444 v 2.258 h 2.444 c 1.174,0 2.129,0.955 2.129,2.129 0,1.174 -0.955,2.129 -2.129,2.129 h -2.444 v 2.259 h 2.444 c 1.174,0 2.129,0.955 2.129,2.129 0,1.174 -0.955,2.129 -2.129,2.129 h -2.444 v 2.258 h 2.444 c 1.174,0 2.129,0.955 2.129,2.13 a 2.131,2.131 0 0 1 -2.129,2.129 h -2.444 v 2.258 h 2.444 c 1.174,0 2.129,0.955 2.129,2.129 0,1.175 -0.955,2.13 -2.129,2.13 h -2.444 v 2.258 h 2.444 c 1.174,0 2.129,0.955 2.129,2.129 0,1.174 -0.955,2.129 -2.129,2.129 h -2.444 v 2.259 h 2.444 c 1.174,0 2.129,0.955 2.129,2.129 0,1.174 -0.955,2.129 -2.129,2.129 h -2.444 v 4.78 h 8.08 V 10.509 Z"
       id="path114" />
    <path
       d="m 23.352,17.418 a 1.13,1.13 0 0 0 -1.129,-1.129 h -4.887 a 1.13,1.13 0 0 0 0,2.258 h 4.887 a 1.13,1.13 0 0 0 1.129,-1.129 z"
       id="path116" />
    <path
       d="m 16.207,17.418 a 1.13,1.13 0 0 1 1.129,-1.129 h 4.887 a 1.13,1.13 0 0 1 0,2.258 h -4.887 a 1.13,1.13 0 0 1 -1.129,-1.129 z m 7.145,6.517 a 1.13,1.13 0 0 0 -1.129,-1.129 h -4.887 c -0.623,0 -1.129,0.507 -1.129,1.129 0,0.622 0.507,1.129 1.129,1.129 h 4.887 a 1.131,1.131 0 0 0 1.129,-1.129 z"
       id="path118" />
    <path
       d="m 16.207,23.935 a 1.13,1.13 0 0 1 1.129,-1.129 h 4.887 c 0.623,0 1.129,0.507 1.129,1.129 0,0.622 -0.506,1.129 -1.129,1.129 h -4.887 a 1.131,1.131 0 0 1 -1.129,-1.129 z m 7.145,6.516 a 1.13,1.13 0 0 0 -1.129,-1.129 h -4.887 a 1.13,1.13 0 0 0 0,2.258 h 4.887 a 1.13,1.13 0 0 0 1.129,-1.129 z"
       id="path120" />
    <path
       d="m 16.207,30.451 a 1.13,1.13 0 0 1 1.129,-1.129 h 4.887 a 1.13,1.13 0 0 1 0,2.258 h -4.887 a 1.13,1.13 0 0 1 -1.129,-1.129 z m 7.145,6.516 a 1.13,1.13 0 0 0 -1.129,-1.129 h -4.887 a 1.13,1.13 0 0 0 0,2.258 h 4.887 a 1.13,1.13 0 0 0 1.129,-1.129 z"
       id="path122" />
    <path
       d="m 16.207,36.967 a 1.13,1.13 0 0 1 1.129,-1.129 h 4.887 a 1.13,1.13 0 0 1 0,2.258 h -4.887 a 1.13,1.13 0 0 1 -1.129,-1.129 z m 7.145,6.517 a 1.13,1.13 0 0 0 -1.129,-1.129 h -4.887 c -0.623,0 -1.129,0.507 -1.129,1.129 0,0.622 0.507,1.129 1.129,1.129 h 4.887 a 1.13,1.13 0 0 0 1.129,-1.129 z m 0,6.516 a 1.13,1.13 0 0 0 -1.129,-1.129 h -4.887 a 1.13,1.13 0 0 0 0,2.258 h 4.887 A 1.13,1.13 0 0 0 23.352,50 Z"
       id="path124" />
    <path
       d="m 16.207,50 a 1.13,1.13 0 0 1 1.129,-1.129 h 4.887 a 1.13,1.13 0 0 1 0,2.258 H 17.336 A 1.13,1.13 0 0 1 16.207,50 Z m 7.145,6.517 a 1.13,1.13 0 0 0 -1.129,-1.129 h -4.887 c -0.623,0 -1.129,0.507 -1.129,1.129 0,0.622 0.507,1.129 1.129,1.129 h 4.887 a 1.13,1.13 0 0 0 1.129,-1.129 z"
       id="path126" />
    <path
       d="m 16.207,56.517 c 0,-0.622 0.507,-1.129 1.129,-1.129 h 4.887 c 0.623,0 1.129,0.507 1.129,1.129 0,0.622 -0.506,1.129 -1.129,1.129 h -4.887 a 1.13,1.13 0 0 1 -1.129,-1.129 z m 7.145,6.516 a 1.13,1.13 0 0 0 -1.129,-1.13 h -4.887 a 1.13,1.13 0 0 0 0,2.259 h 4.887 a 1.13,1.13 0 0 0 1.129,-1.129 z m 0,6.516 A 1.13,1.13 0 0 0 22.223,68.42 h -4.887 a 1.13,1.13 0 0 0 0,2.259 h 4.887 a 1.13,1.13 0 0 0 1.129,-1.13 z"
       id="path128" />
    <path
       d="m 16.207,69.549 c 0,-0.622 0.507,-1.129 1.129,-1.129 h 4.887 a 1.13,1.13 0 0 1 0,2.259 h -4.887 a 1.13,1.13 0 0 1 -1.129,-1.13 z m 7.145,6.516 a 1.13,1.13 0 0 0 -1.129,-1.129 h -4.887 c -0.623,0 -1.129,0.507 -1.129,1.129 0,0.622 0.507,1.129 1.129,1.129 h 4.887 a 1.13,1.13 0 0 0 1.129,-1.129 z"
       id="path130" />
    <path
       d="m 16.207,76.065 c 0,-0.622 0.507,-1.129 1.129,-1.129 h 4.887 c 0.623,0 1.129,0.507 1.129,1.129 0,0.622 -0.506,1.129 -1.129,1.129 h -4.887 a 1.13,1.13 0 0 1 -1.129,-1.129 z m 7.145,6.517 a 1.13,1.13 0 0 0 -1.129,-1.129 h -4.887 c -0.623,0 -1.129,0.507 -1.129,1.129 0,0.622 0.507,1.129 1.129,1.129 h 4.887 a 1.13,1.13 0 0 0 1.129,-1.129 z"
       id="path132" />
    <path
       d="m 16.207,82.582 c 0,-0.622 0.507,-1.129 1.129,-1.129 h 4.887 c 0.623,0 1.129,0.507 1.129,1.129 0,0.622 -0.506,1.129 -1.129,1.129 H 17.336 A 1.13,1.13 0 0 1 16.207,82.582 Z M 79.406,10.509 H 29.943 v 78.982 h 49.463 a 4.887,4.887 0 0 0 4.887,-4.887 V 15.396 a 4.887,4.887 0 0 0 -4.887,-4.887 z"
       id="path134" />
  </g>
  <!---->
</svg>
